<mxfile host="app.diagrams.net" modified="2023-08-31T06:49:25.338Z" agent="Mozilla/5.0 (Linux; Android 13) AppleWebKit/537.36 (KHTML, like Gecko) Version/4.0 Chrome/115.0.5790.168 DuckDuckGo/5 Safari/537.36" etag="vlwPLgPu_VRmeLBLz4YG" version="21.7.1" type="github">
  <diagram name="Page-1" id="EVfbMgRgJgo2VkLLqiw9">
    <mxGraphModel dx="1192" dy="797" grid="1" gridSize="10" guides="1" tooltips="1" connect="1" arrows="1" fold="1" page="1" pageScale="1" pageWidth="827" pageHeight="1169" background="none" math="0" shadow="0">
      <root>
        <mxCell id="0" />
        <mxCell id="1" parent="0" />
        <mxCell id="R2QgoeFWOkfdTr1HwpYz-10" value="" style="rounded=0;whiteSpace=wrap;html=1;fontSize=16;fillColor=#FF66FF;strokeColor=#FFFFFF;" parent="1" vertex="1">
          <mxGeometry x="432" y="236" width="49" height="164" as="geometry" />
        </mxCell>
        <mxCell id="R2QgoeFWOkfdTr1HwpYz-1" value="cBc-bd" style="text;html=1;align=center;verticalAlign=middle;resizable=0;points=[];autosize=1;strokeColor=none;fillColor=none;fontSize=16;fontColor=#FFFFFF;" parent="1" vertex="1">
          <mxGeometry x="40" y="40" width="70" height="30" as="geometry" />
        </mxCell>
        <mxCell id="R2QgoeFWOkfdTr1HwpYz-3" value="" style="rounded=0;whiteSpace=wrap;html=1;fontSize=16;fillColor=#e3c800;strokeColor=#B09500;fontColor=#000000;" parent="1" vertex="1">
          <mxGeometry x="72" y="120" width="48" height="280" as="geometry" />
        </mxCell>
        <mxCell id="R2QgoeFWOkfdTr1HwpYz-6" value="" style="endArrow=classic;html=1;rounded=0;fontSize=12;startSize=8;endSize=8;curved=1;strokeColor=#FFFFFF;" parent="1" edge="1">
          <mxGeometry width="50" height="50" relative="1" as="geometry">
            <mxPoint x="315" y="428" as="sourcePoint" />
            <mxPoint x="315" y="78" as="targetPoint" />
          </mxGeometry>
        </mxCell>
        <mxCell id="R2QgoeFWOkfdTr1HwpYz-7" value="" style="rounded=0;whiteSpace=wrap;html=1;fontSize=16;strokeColor=#FFFFFF;fillColor=#a0522d;fontColor=#ffffff;" parent="1" vertex="1">
          <mxGeometry x="195" y="251" width="49" height="149" as="geometry" />
        </mxCell>
        <mxCell id="R2QgoeFWOkfdTr1HwpYz-5" value="" style="endArrow=none;dashed=1;html=1;rounded=0;fontSize=12;startSize=8;endSize=8;curved=1;strokeColor=#007FFF;" parent="1" edge="1">
          <mxGeometry width="50" height="50" relative="1" as="geometry">
            <mxPoint x="40" y="389" as="sourcePoint" />
            <mxPoint x="741" y="389" as="targetPoint" />
          </mxGeometry>
        </mxCell>
        <mxCell id="R2QgoeFWOkfdTr1HwpYz-4" value="" style="endArrow=classic;html=1;rounded=0;fontSize=12;startSize=8;endSize=8;curved=1;strokeColor=#FFFFFF;" parent="1" edge="1">
          <mxGeometry width="50" height="50" relative="1" as="geometry">
            <mxPoint x="40" y="400" as="sourcePoint" />
            <mxPoint x="750" y="400" as="targetPoint" />
          </mxGeometry>
        </mxCell>
        <mxCell id="R2QgoeFWOkfdTr1HwpYz-17" value="&lt;font color=&quot;#ffffff&quot;&gt;Ai&lt;/font&gt;" style="text;html=1;align=center;verticalAlign=middle;resizable=0;points=[];autosize=1;strokeColor=none;fillColor=none;fontSize=16;" parent="1" vertex="1">
          <mxGeometry x="394.5" y="188" width="32" height="31" as="geometry" />
        </mxCell>
        <mxCell id="R2QgoeFWOkfdTr1HwpYz-18" value="&lt;font color=&quot;#ffffff&quot;&gt;BoM&lt;/font&gt;" style="text;html=1;align=center;verticalAlign=middle;resizable=0;points=[];autosize=1;strokeColor=none;fillColor=none;fontSize=16;" parent="1" vertex="1">
          <mxGeometry x="315" y="177" width="51" height="31" as="geometry" />
        </mxCell>
        <mxCell id="R2QgoeFWOkfdTr1HwpYz-20" value="&lt;font color=&quot;#ffffff&quot;&gt;cost&lt;/font&gt;" style="text;html=1;align=center;verticalAlign=middle;resizable=0;points=[];autosize=1;strokeColor=none;fillColor=none;fontSize=16;" parent="1" vertex="1">
          <mxGeometry x="195" y="224" width="49" height="31" as="geometry" />
        </mxCell>
        <mxCell id="R2QgoeFWOkfdTr1HwpYz-21" value="&lt;font color=&quot;#ffffff&quot;&gt;BTC&lt;/font&gt;" style="text;html=1;align=center;verticalAlign=middle;resizable=0;points=[];autosize=1;strokeColor=none;fillColor=none;fontSize=16;" parent="1" vertex="1">
          <mxGeometry x="72" y="82" width="48" height="31" as="geometry" />
        </mxCell>
        <mxCell id="R2QgoeFWOkfdTr1HwpYz-22" value="" style="rounded=0;whiteSpace=wrap;html=1;fontSize=16;fillColor=#6a00ff;strokeColor=#3700CC;fontColor=#ffffff;" parent="1" vertex="1">
          <mxGeometry x="314" y="207" width="48" height="193" as="geometry" />
        </mxCell>
        <mxCell id="kiSuE_kS049nEQs76x9w-1" value="" style="endArrow=classic;html=1;rounded=0;" parent="1" edge="1">
          <mxGeometry width="50" height="50" relative="1" as="geometry">
            <mxPoint x="41" y="400" as="sourcePoint" />
            <mxPoint x="756" y="400" as="targetPoint" />
          </mxGeometry>
        </mxCell>
        <mxCell id="8bLiNLLLPej7S4-kUZS2-1" value="" style="endArrow=classic;html=1;rounded=0;" parent="1" edge="1">
          <mxGeometry width="50" height="50" relative="1" as="geometry">
            <mxPoint x="314" y="401" as="sourcePoint" />
            <mxPoint x="314" y="90" as="targetPoint" />
          </mxGeometry>
        </mxCell>
        <mxCell id="8bLiNLLLPej7S4-kUZS2-3" value="BTC" style="text;html=1;align=center;verticalAlign=middle;resizable=0;points=[];autosize=1;strokeColor=none;fillColor=none;" parent="1" vertex="1">
          <mxGeometry x="76" y="84.5" width="40" height="26" as="geometry" />
        </mxCell>
        <mxCell id="8bLiNLLLPej7S4-kUZS2-5" value="cost" style="text;html=1;align=center;verticalAlign=middle;resizable=0;points=[];autosize=1;strokeColor=none;fillColor=none;" parent="1" vertex="1">
          <mxGeometry x="199" y="224" width="41" height="26" as="geometry" />
        </mxCell>
        <mxCell id="8bLiNLLLPej7S4-kUZS2-6" value="ioi" style="text;html=1;align=center;verticalAlign=middle;resizable=0;points=[];autosize=1;strokeColor=none;fillColor=none;" parent="1" vertex="1">
          <mxGeometry x="323" y="181" width="31" height="26" as="geometry" />
        </mxCell>
        <mxCell id="8bLiNLLLPej7S4-kUZS2-7" value="Ai" style="text;html=1;align=center;verticalAlign=middle;resizable=0;points=[];autosize=1;strokeColor=none;fillColor=none;" parent="1" vertex="1">
          <mxGeometry x="442" y="211" width="29" height="26" as="geometry" />
        </mxCell>
        <mxCell id="7bqrnH9gvKupn2Ti3Ehg-2" value="" style="endArrow=classic;html=1;rounded=0;" edge="1" parent="1">
          <mxGeometry width="50" height="50" relative="1" as="geometry">
            <mxPoint x="95" y="401" as="sourcePoint" />
            <mxPoint x="95" y="520" as="targetPoint" />
          </mxGeometry>
        </mxCell>
        <mxCell id="7bqrnH9gvKupn2Ti3Ehg-3" value="" style="endArrow=classic;html=1;rounded=0;" edge="1" parent="1">
          <mxGeometry width="50" height="50" relative="1" as="geometry">
            <mxPoint x="218" y="401" as="sourcePoint" />
            <mxPoint x="218" y="520" as="targetPoint" />
          </mxGeometry>
        </mxCell>
        <mxCell id="7bqrnH9gvKupn2Ti3Ehg-4" value="" style="endArrow=classic;html=1;rounded=0;" edge="1" parent="1">
          <mxGeometry width="50" height="50" relative="1" as="geometry">
            <mxPoint x="338" y="400" as="sourcePoint" />
            <mxPoint x="338" y="519" as="targetPoint" />
          </mxGeometry>
        </mxCell>
        <mxCell id="7bqrnH9gvKupn2Ti3Ehg-5" value="" style="endArrow=classic;html=1;rounded=0;" edge="1" parent="1">
          <mxGeometry width="50" height="50" relative="1" as="geometry">
            <mxPoint x="459" y="400" as="sourcePoint" />
            <mxPoint x="459" y="519" as="targetPoint" />
          </mxGeometry>
        </mxCell>
      </root>
    </mxGraphModel>
  </diagram>
</mxfile>
